<?xml version="1.0" encoding="utf-8"?>
<!-- Generator: Adobe Illustrator 17.0.0, SVG Export Plug-In . SVG Version: 6.00 Build 0)  -->
<!DOCTYPE svg PUBLIC "-//W3C//DTD SVG 1.1//EN" "http://www.w3.org/Graphics/SVG/1.1/DTD/svg11.dtd">
<svg version="1.1" id="Layer_1" xmlns="http://www.w3.org/2000/svg" xmlns:xlink="http://www.w3.org/1999/xlink" x="0px" y="0px"
	 width="249.695px" height="227.14px" viewBox="0 0 249.695 227.14" enable-background="new 0 0 249.695 227.14"
	 xml:space="preserve">
<g>
	
		<polygon fill="#CC3E45" stroke="#000000" stroke-width="1.5" stroke-linecap="round" stroke-linejoin="round" stroke-miterlimit="10" points="
		248.305,1 199.025,197.621 162.87,67.118 	"/>
	
		<polygon fill="#F7777E" stroke="#000000" stroke-width="1.5" stroke-linecap="round" stroke-linejoin="round" stroke-miterlimit="10" points="
		199.025,197.621 139.098,64.394 60.846,76.776 	"/>
	
		<polygon fill="#ADE860" stroke="#000000" stroke-width="1.5" stroke-linecap="round" stroke-linejoin="round" stroke-miterlimit="10" points="
		223.788,187.964 199.025,197.621 7.357,157.257 63.074,217.927 183.919,208.022 215.368,225.852 238.398,199.355 	"/>
	
		<polygon fill="#79F2F2" stroke="#000000" stroke-width="1.5" stroke-linecap="round" stroke-linejoin="round" stroke-miterlimit="10" points="
		199.025,197.621 203.978,70.585 100.962,14.62 	"/>
	
		<polygon fill="#4CBAE5" stroke="#000000" stroke-width="1.5" stroke-linecap="round" stroke-linejoin="round" stroke-miterlimit="10" points="
		199.025,197.621 53.911,56.47 1.165,101.539 	"/>
	<g id="Layer_7">
		<g>
			<g>
				<polygon points="223.788,187.964 233.384,197.621 215.368,225.852 238.398,199.355 				"/>
				<polygon points="7.357,157.257 61.96,206.908 183.919,208.022 63.074,217.927 				"/>
				<polygon points="199.025,197.621 51.931,62.599 7.357,100.673 44.959,122.806 1.165,101.539 53.911,56.47 				"/>
				<polygon points="128.531,66.066 198.753,196.638 127.212,68.356 80.782,82.606 72.837,74.878 				"/>
				<polygon points="123.387,56.47 104.057,17.963 199.025,78.386 198.753,196.638 203.978,70.585 100.962,14.62 				"/>
				<polygon points="248.305,1 184.814,60.174 177.193,56.034 				"/>
			</g>
			<polygon points="223.788,187.964 196.053,200.593 7.357,157.257 199.025,197.621 			"/>
		</g>
	</g>
</g>
</svg>
